<?xml version="1.0" encoding="UTF-8"?><svg id="Layer_1" xmlns="http://www.w3.org/2000/svg" viewBox="0 0 653.77 607.95"><defs><style>.cls-1{fill:#fff;stroke-width:0px;}</style></defs><path class="cls-1" d="M40.37,276.07c.32,3.43.57,6.86.96,10.28,1.33,11.49,2.57,23,4.12,34.46,1.65,12.18,3.17,24.41,5.57,36.46,2.69,13.48,5.71,26.95,9.68,40.08,3.51,11.59,8.14,22.9,12.99,34.02,7.87,18.06,18.37,34.65,30.18,50.38,4.66,6.2,9.88,11.98,14.98,17.84,15.47,17.76,33.17,33.17,51.87,47.34,13.53,10.25,27.82,19.47,42.64,27.85,12.91,7.31,26.19,13.79,39.94,19.33,12.29,4.95,25.09,8.14,38.23,9.81,14.41,1.83,28.85,3.28,43.41,3.04-10.26,1.34-20.55,1.15-30.85.43-4.82-.34-9.63-.77-14.44-1.15-11.14-.88-21.93-3.46-32.67-6.41-14.44-3.96-28.43-9.19-42.15-15.07-17.93-7.68-35.25-16.65-51.63-27.3-10.18-6.62-20.45-13.17-30.17-20.43-14.2-10.6-27.84-21.95-39.94-34.95-9.47-10.18-18.97-20.38-27.74-31.15-7.94-9.75-14.92-20.26-21.47-31.06-7.16-11.79-13.72-23.87-19.32-36.45-8.49-19.06-14.89-38.78-19.16-59.25C.35,320-.77,295.62.46,271.12c.85-16.96,3.08-33.78,6.49-50.49,4.03-19.76,9.97-38.87,17.82-57.35,7.8-18.37,17.65-35.69,29.07-52.1,8.06-11.58,17.17-22.24,27.44-31.9,1.7-1.6,3.53-3.07,5.75-4.16-3.33,3.82-6.87,7.49-9.96,11.49-6.08,7.87-12.06,15.82-17.8,23.94-4.57,6.47-8.26,13.49-10.7,21.08-.81,2.5-1.55,5.07-1.86,7.67-.15,1.24.42,3.31,1.29,3.74.93.46,2.98-.18,3.85-1.04,1.64-1.62,2.9-3.67,4.11-5.67,9.52-15.78,21.6-29.56,33.99-43.06,8.12-8.85,16.41-17.55,24.91-26.03,8.32-8.29,17.63-15.45,27.3-22.11,9.29-6.4,18.77-12.53,28.18-18.75,1.18-.78,2.47-1.41,4.11-1.56-2.52,2.07-5.09,4.07-7.55,6.21-11.51,9.99-23.25,19.73-34.4,30.1-14.85,13.8-27.9,29.24-38.88,46.32-9.91,15.41-19.11,31.24-26.08,48.25-5.34,13.06-9.36,26.53-11.62,40.47-2.09,12.86-4.11,25.73-5.93,38.63-.97,6.88-.05,13.76,1.05,20.58,3.25,20.18,8.72,39.78,16.12,58.81,6.64,17.09,14.59,33.56,23.77,49.45,8.09,13.99,17.24,27.23,27.38,39.78,9.88,12.22,20.93,23.34,32.51,33.94,9.09,8.33,18.75,16.01,28.94,22.86,11.77,7.92,23.94,15.31,36.33,22.21,11.24,6.26,22.83,11.95,34.58,17.21,15.11,6.76,30.54,12.79,46.48,17.41,8.01,2.32,15.92,5.1,24.05,6.89,16.01,3.54,32.07,6.91,48.23,9.64,13.57,2.3,27.28,3.83,40.97,5.26,9.91,1.04,19.88,1.41,29.84,1.96,9.8.54,19.61.94,29.41,1.41.39.02.77.15,1.94.4-42.96,3.47-85.18,1.5-127.38,1.73-10.37.06-20.76-.81-31.12-1.56-9.77-.71-19.59-1.33-29.23-2.9-9.35-1.53-18.75-3.35-27.4-7.64-1.94-.96-4.04-1.59-6.85-2.68.62,1.43.77,2.25,1.24,2.8,4.91,5.87,11.34,9.62,18.14,12.84,8.32,3.94,17.24,5.75,26.24,6.93,11.47,1.51,22.99,2.69,34.52,3.59,13.15,1.02,26.34,1.79,39.52,2.29,25.95.98,51.92,2.11,77.88.87,13.46-.64,26.93-1.69,40.32-3.24,19.82-2.29,39.26-6.66,58.4-12.3,13.5-3.98,26.68-8.86,39.59-14.47,2.95-1.28,5.83-2.7,9.17-3.47-1.99,1.41-3.91,2.93-5.99,4.2-16.52,10.13-33.82,18.7-51.77,26.01-17.4,7.09-35.31,12.63-53.62,16.67-13.13,2.9-26.42,5.29-39.74,7.15-12.74,1.78-25.62,2.54-38.43,3.83-21.2,2.14-42.47,1.79-63.72,1.58-6.7-.07-13.41-.9-20.1-1.5-5.97-.54-11.98-.91-17.87-1.95-8.92-1.57-17.79-3.42-26.59-5.57-6.52-1.59-12.99-3.57-19.29-5.88-6.72-2.46-13.27-5.42-19.81-8.33-5.22-2.32-10.38-4.78-15.48-7.37-16.11-8.16-31.09-18.06-45.61-28.81-10.38-7.69-20.36-15.82-29.74-24.64-12.36-11.63-24.18-23.78-34.91-37.02-13.88-17.14-26.01-35.33-36.21-54.89-9.2-17.64-15.74-36.21-20.93-55.34-4.24-15.6-6.71-31.49-8.81-47.47-1.18-9.01-2.47-18-3.77-26.99-.16-1.08-.68-2.11-1.04-3.17l-.83.15Z"/><path class="cls-1" d="M607.6,220.9c-2.31-10.97-7.37-20.28-13.57-29.03-6.11-8.61-13.15-16.36-21.88-22.88,1.94-.97,3.33-1.67,5.12-2.56-.76-2.27-1.47-4.39-2.29-6.82-3.45.85-6.39,1.68-9.37,2.26-1.36.27-3.06.57-4.18,0-9.68-4.87-19.21-10.01-28.89-14.89-2.71-1.36-4.43-3.17-5.18-6.08-.32-1.24-1.06-2.37-1.85-4.06-3.84,1-7.57,1.96-11.96,3.1,1.7,4.37,3.21,8.25,4.92,12.62,2.82-.75,5.52-1.27,8.07-2.2,1.95-.71,3.23-.2,4.76,1.02,7.55,6.04,15.26,11.86,22.78,17.93,9.23,7.44,18.43,14.95,26.22,23.96,6.1,7.05,10.65,15.08,14.46,23.54.35.78.45,1.68.86,3.27-7.02-2.87-13.79-2.64-20.67-.87-4.48-10.94-10.52-20.39-17.88-28.95.17-.31.25-.68.42-.73,1.47-.45,3.92-.07,3.9-2.03-.02-2.04-1.11-4.18-2.17-6.03-.32-.55-2.33-.73-3.16-.3-5.01,2.58-7.88-.2-11.33-3.44-6.39-6.01-13.23-11.56-20.13-16.99-6.54-5.15-13.4-9.9-20.14-14.85,2.21-1.73,2.78-3.37,1.6-5.44-.41-.73-1.49-1.43-2.31-1.49-1.43-.1-2.98.07-4.32.56-2.98,1.11-5.38,0-7.87-1.41-14.76-8.36-33.72-17.51-49.26-23.44,5.42-1.21,10.03-2.24,15.33-3.42-1.95-5.05-3.67-9.49-5.54-14.33-5.82,1.39-11.33,2.46-16.9,5.11,1.2,3.72,2.33,7.26,3.61,11.22-12.15-4.01-23.87-7.88-36.21-11.96,3.17-.71,5.7-1.27,8.91-1.99-1.13-3.11-2.03-5.83-3.15-8.44-.28-.65-1.4-1.46-1.99-1.36-3.41.6-6.77,1.45-10.05,2.19-.85,3.43,3.81,5.68.94,9.11,1.12.7,2.15,1.49,3.3,2.04,14.58,6.87,29.29,13.46,43.74,20.61,19.56,9.67,38.91,19.79,56.95,32.17,4.92,3.37,9.62,7.05,14.85,10.9-2.79,1.2-5.03,2.17-7.44,3.2.4,4.55,3.42,7.81,5.04,11.64.19.45,1.34.9,1.86.74,3.33-.99,6.6-2.16,9.95-3.29-.25-1.78-.43-3.03-.62-4.35,4.44,4.36,8.96,8.51,13.16,12.97,7.75,8.21,14.94,16.88,21.24,26.28,6.29,9.37,10.98,19.36,12.42,30.67.25,1.99.23,4.01.35,6.36-1.32-.19-2.21-.16-2.97-.46-6.47-2.54-13.2-3.87-20.1-4.26-1.76-.1-2.67-.87-3.16-2.44-1.01-3.21-2.1-6.4-3.11-9.61-1.38-4.39-3.44-8.39-6.4-11.93-1.24-1.48-2.51-2.85-4.76-2.73-1.11,1.7.02,3.16.46,4.57,2.56,8.28,4.47,16.69,5.27,25.33.28,3,.21,3.09-3.8,4.4-.55-2.1-1.12-4.17-1.65-6.26-3.19-12.62-8.62-24.3-15.35-35.36-4.34-7.12-8.7-14.35-14.01-20.72-7.02-8.42-14.67-16.36-22.6-23.95-13.71-13.13-29.32-23.83-46.01-32.77-12.65-6.77-25.91-12.26-39.71-16.42-14.48-4.37-29.21-7.13-44.23-8.89-12.72-1.49-25.44-1.91-38.17-1.43-8.89.34-17.83,1.23-26.6,2.72-10.22,1.74-20.4,3.99-30.39,6.76-15.45,4.28-29.93,10.9-43.58,19.41-9.38,5.85-17.93,12.73-25.96,20.17-5.34,4.94-9.79,10.87-14.42,16.54-10.69,13.11-17.86,28.22-23.38,44.02-3.86,11.05-6.4,22.51-7.92,34.2-1.34,10.36-1.77,20.73-1.66,31.15.11,10.3,1.22,20.5,3.33,30.54,2.07,9.86,4.35,19.71,7.14,29.39,3.67,12.7,8.9,24.83,15.27,36.42,2.96,5.39,6.27,10.58,9.4,15.88.64,1.09,1.17,2.24,1.73,3.32-1.69,1.43-2.77.32-3.79-.37-7.67-5.18-14.79-11.05-21.26-17.66-10.33-10.56-18.63-22.58-25.36-35.68-6.04-11.75-11.05-23.98-14.3-36.77-3.17-12.49-5.35-25.15-6.05-38.12-1.11-20.88,1.38-41.24,7.73-61.06,4.54-14.15,11.04-27.45,19.4-39.8,7.17-10.59,15.18-20.5,24.28-29.48,12.98-12.82,27.39-23.83,42.86-33.5,10.21-6.39,20.82-12.05,31.86-16.78,10.08-4.32,20.52-7.82,30.85-11.53,15.67-5.63,32.01-8.48,48.36-11.17,7.06-1.16,14.29-1.32,21.43-2.1,15.08-1.63,30.19-.97,45.28-.72,8.34.14,16.68.98,25,1.77,15.32,1.46,30.57,3.5,45.56,6.98,13.25,3.08,26.49,6.32,39.21,11.28,11.18,4.36,22.57,8.32,33.39,13.47,11.48,5.46,22.41,12.1,33.55,18.27.82.45,1.45,1.24,2.56,2.23-3.48,1.25-6.45,2.31-9.77,3.5.57,4.74,3,8.55,4.83,13.13,4.9-1.01,9.54-1.96,14.69-3.02-.9-2.98-1.6-5.3-2.54-8.4,3.76,2.88,7.22,5.18,10.27,7.94,8.8,7.98,17.34,16.24,24.51,25.78,7.45,9.91,13.73,20.48,16.65,32.66,1.74,7.26,2.76,14.6,1.65,22.2-.73,4.97-3.79,7.18-7.93,9.55ZM517.77,114.23c-2-5.44-3.63-10.08-5.44-14.65-.59-1.51-1.96-1.37-3.38-.99-3.94,1.06-7.93,1.94-11.86,3-2.41.65-2.82,1.43-1.95,3.82,1.25,3.42,2.68,6.78,4,10.18.57,1.45,1.66,2.07,3.11,1.8,4.84-.93,9.66-1.95,15.51-3.15ZM477.81,108.88c-.49-4.92-2.16-9.19-3.95-13.41-.23-.55-1.51-1.09-2.17-.96-4.2.86-8.36,1.9-12.97,2.99,1.7,4.82,3.17,9.02,4.77,13.56,4.83-.74,9.36-1.43,14.32-2.19ZM449.06,89.48c-1.31-3.69-2.59-7.53-4.08-11.28-.24-.61-1.46-1.31-2.09-1.2-3.09.54-6.26.96-8.86,2.84,3,12.45,3.53,12.84,13.99,10.54.12-.03.22-.18,1.04-.89ZM375.77,68.05c1.67,4.37,2.93,7.91,4.44,11.34.3.67,1.66,1.37,2.41,1.26,2.81-.42,5.58-1.17,9.05-1.96-2.21-4.62-2.74-9.14-5.69-13.01-3.21.74-6.26,1.45-10.21,2.37ZM545.37,225.58c4.49-1.27,8.1-2.29,12.16-3.44-.95-3.26-1.71-6.18-2.72-9.02-.22-.62-1.41-1.43-1.97-1.3-3.79.87-7.58,1.81-11.4,3.93,1.33,3.33,2.54,6.39,3.91,9.83ZM572.48,201.66c1.48,4.01,2.56,7.32,3.96,10.48.36.82,1.76,1.68,2.67,1.66,2.02-.04,4.05-.53,6.03-1.03,1.45-.37,2.26-1.41,1.68-2.98-1.3-3.51-2.67-7-4.08-10.67-3.57.89-6.62,1.64-10.25,2.55ZM412.3,78.08c1.31,3.4,2.21,5.99,3.33,8.49.3.66,1.26,1.43,1.93,1.44,3.33.05,6.65-.2,10.09-2.29-1.17-3.32-2.3-6.52-3.57-10.1-4,.83-7.51,1.56-11.78,2.45ZM566.44,139.92c-3.06.81-5.42,1.43-7.78,2.06-1.88.51-2.14,1.83-1.52,3.4.97,2.43,1.9,4.89,3.18,7.16.43.77,1.93,1.49,2.79,1.35,2.5-.4,4.93-1.25,7.82-2.05-1.56-4.15-2.93-7.77-4.49-11.92ZM403.43,82.93c-1.98-10.3-3.13-7.79-8.83-6.88-.42.07-.87.22-1.2.47-.33.25-.64.63-.77,1.01-.65,2,1.68,5.93,3.74,5.98,2.24.04,4.5-.35,7.05-.58ZM604.42,195.88c.17,4.22.8,6.21,2.27,6.15,2.37-.1,5.13-.31,6.93-1.58,1.77-1.25.38-3.66-.44-5.97-3.04.49-5.94.95-8.76,1.41ZM533.39,117.66c.28-5.54-.42-6.26-5.04-5.68-.58.07-1.17.07-1.74.16-3.33.53-3.84,1.66-2.41,4.73.73,1.57,1.8,2.25,3.44,1.97,1.85-.32,3.68-.75,5.75-1.18ZM578.23,149.6c1.87,5.87,1.94,5.91,6.63,4.86.57-.13,1.15-.24,1.73-.3,1.81-.2,2.57-1.11,2.23-2.97-.47-2.58-1.62-4.08-3.41-3.72-2.36.48-4.64,1.36-7.18,2.14ZM514.38,123.11c-4.25.27-5.41.95-5.17,3.08.41,3.71,2,5.25,5.21,5.03,2.92-.2,3.78-.98,3.57-3.21-.34-3.64-1.37-5.04-3.61-4.9ZM468.74,118.29c.33,1.62.4,2.64.74,3.56,1.23,3.34,2.98,3.87,6.93,2.19,1.88-.8,2.16-2.31,1.1-5.25-.52-1.44-1.34-2.25-2.91-1.91-1.81.39-3.61.86-5.87,1.41ZM539.87,140.72c.53,1.79.85,3.3,1.41,4.72.84,2.1,2.79,1.86,4.46,1.62,1.01-.14,2.41-.7,2.79-1.48,1.43-2.95-1.4-6.59-4.63-6.09-1.23.19-2.4.72-4.03,1.23ZM488.01,131.3c2.89-.5,5.37-.92,8.3-1.42-.47-1.93-.61-3.4-1.21-4.63-.35-.72-1.5-1.56-2.23-1.5-2.12.17-4.2.77-6.8,1.3.65,2.1,1.2,3.85,1.94,6.25ZM493.63,167.43c.37,6.49,1.58,7.13,8.52,4.48.42-2,.38-4.39-1.3-5.48-2.39-1.54-4.92-.02-7.21,1ZM512.27,190.88c.05,7.4,1.44,8.29,8.02,5.57.58-5.59-.11-6.38-5.19-5.99-.85.07-1.7.24-2.83.41ZM593.7,167.38c-1.29-6.81-2.91-7.47-8.91-3.88,1.24,6.42,2.83,7.16,8.91,3.88ZM479.82,157.47c.52,6.32,1.53,6.87,8.05,4.82.12-.36.36-.77.36-1.17.04-4.56-.94-5.36-5.3-4.36-.96.22-1.93.44-3.12.71ZM419.5,91.97c.06,2.41,0,4.5,1.99,4.57,2.08.07,4.27-.66,6.24-1.46.56-.23.84-2.03.62-2.96-.16-.7-1.39-1.72-2.03-1.64-2.24.26-4.43.94-6.82,1.5ZM591.91,179.25c-.53,3.57-.32,5.28.93,5.44,1.79.23,4.23.49,5.37-.47,1.82-1.54.59-3.67-.81-5.51-1.91.19-3.75.37-5.49.55ZM534.01,127.07c-1.6,0-2.74-.03-3.88,0-1.59.04-2.91.46-2.9,2.42,0,1.89,1.22,3.34,3.14,3.42,1.37.06,2.75-.23,4.54-.4-.36-2.16-.63-3.77-.9-5.45ZM530.44,198.99c.31,2.59-.28,4.86,2.02,5.2,1.7.25,4,.05,5.23-.94,1.56-1.26.02-3.12-.63-5.05-2.22.27-4.28.52-6.62.8ZM489.58,107.05c.27-1.99.64-3.91-1.31-4.38-1.34-.32-3.1.2-4.37.9-.49.27-.6,2.4-.09,3.09,1.53,2.07,3.61.95,5.77.39ZM465.82,140.78c-2.06-.58-4.13-1.22-5.21.76-.5.93-.07,3.08.73,3.84,1.62,1.53,3.39.51,5.1-.78-.22-1.35-.42-2.58-.62-3.82ZM554.02,236.02c.89-.06,2.64.03,2.68-2.32.03-2-1.03-2.82-3.52-2.77-2.47.05-3.12.62-3.11,2.6,0,2.25,1.45,2.58,3.95,2.48ZM392.82,99.38c.21-.37.42-.74.64-1.1-5.54-2.5-11.13-4.89-16.93-6.7-.15.38-.3.77-.45,1.15,5.58,2.22,11.17,4.44,16.75,6.66Z"/><path class="cls-1" d="M636.62,439.44c-3.54,3.03-6.86,6.37-10.66,9.04-8.63,6.06-17.19,12.3-26.32,17.53-16.16,9.26-33.14,16.81-51.02,22.28-11.63,3.56-23.3,6.92-35.29,8.97-7.78,1.33-15.63,2.25-23.46,3.23-13.41,1.69-26.9,2.1-40.38,1.59-10.37-.39-20.73-1.34-31.05-2.41-9.16-.95-18.33-2.03-27.37-3.7-20.16-3.73-40.05-8.53-59.49-15.25-16.22-5.61-32.13-11.9-47.4-19.69-13.31-6.8-26.15-14.43-38.29-23.2-15.97-11.54-30.71-24.5-43.36-39.58-13.21-15.74-24.52-32.76-32.71-51.81-6.89-16.01-11.48-32.51-13.86-49.75-2.85-20.65-1.27-41.03,4.03-61,5.4-20.34,15.16-38.53,28.86-54.73,11.15-13.19,24.29-23.78,39.02-32.43,18.52-10.88,38.6-17.53,59.83-20.88,18.97-2.99,37.95-3.26,57-1.02,4.57.54,9.17.84,13.74,1.6-13.38,1.95-26.5,4.8-39.33,8.72-10.92,3.34-21.43,7.85-31.61,13.12-12.77,6.61-24.01,15.16-33.86,25.54-8.56,9.02-14.83,19.57-20.05,30.8-5.02,10.8-9,21.97-11.7,33.55-3.74,16.06-5.71,32.36-4.57,48.86,1.39,20.16,5.82,39.68,12.99,58.59,4.58,12.09,10.09,23.75,16.76,34.8,5.62,9.31,12.49,17.73,20.22,25.4,20.44,20.25,44.41,35.33,70.28,47.52,8.99,4.24,18.16,8.12,27.43,11.7,11.21,4.32,22.88,7.26,34.66,9.57,8.62,1.69,17.29,3.19,26,4.3,7.7.98,15.47,1.56,23.23,1.85,14.66.54,29.33.71,43.98-.24,31.01-2.02,61.38-7.45,90.69-18,12.82-4.61,25.39-9.87,37.19-16.79,5.04-2.96,10.15-5.8,15.23-8.69.21.19.42.39.63.58Z"/><path class="cls-1" d="M582.92,372.86c-14.59,6.98-29.94,11.18-45.72,13.75-14.08,2.3-28.35,2.62-42.53,1.76-14.6-.89-28.98-3.55-43.21-7.16-20.83-5.29-40.77-12.73-59.6-23.09-13.54-7.45-26.21-16.19-37.42-26.82-18.8-17.81-32.3-38.92-38.4-64.37-3.11-12.99-2.88-26.14-1.97-39.32.06-.87.15-1.73.14-2.6,0-.18-.38-.35-.82-.74-2.09,3.02-2.39,6.6-2.74,9.9-.89,8.44-1.84,16.94-1.72,25.4.31,20.79,4.97,40.69,14.7,59.15,7.78,14.77,18.2,27.57,30.39,38.99,11.97,11.21,25.4,20.39,39.83,27.93,13.63,7.11,27.7,13.41,42.51,17.85,12.08,3.62,24.2,7.02,36.64,9.17,11.4,1.97,22.81,3.82,34.42,4.04,7.47.14,14.94.78,22.4.75,18.97-.07,37.7-2.31,56.23-6.5,19.3-4.37,37.52-11.45,54.88-20.84,3.71-2.01,7.31-4.24,11.29-5.92-5.41,4.11-10.7,8.38-16.24,12.28-12.13,8.53-24.95,15.9-38.55,21.81-17.37,7.54-35.35,13.07-54.08,16.28-16.7,2.86-33.49,3.98-50.33,3.16-10.19-.5-20.38-1.99-30.45-3.72-13.14-2.26-26.02-5.76-38.63-10.12-17.88-6.18-35.03-13.94-51.4-23.51-9.65-5.64-18.87-11.83-27.62-18.74-15.65-12.36-29.14-26.8-39.75-43.68-7.02-11.16-12.53-23.08-16.4-35.82-4.5-14.78-6.41-29.81-5.64-45.11.77-15.34,4.06-30.22,11.58-43.8,7.01-12.65,16.24-23.28,29.4-29.96,10.73-5.44,22.12-7.25,34.09-6.51,12.83.79,24.7,4.62,36.05,10.38,1.79.91,3.44,2.12,4.99,3.91-.76.04-1.54.23-2.28.1-4.32-.73-8.61-1.95-12.95-2.18-4.34-.23-8.8.1-13.09.87-17.14,3.06-30.08,12.32-39.12,27.15-5,8.2-8.14,16.93-7.15,26.68.94,9.23,3.27,18.15,6.83,26.73,7.02,16.91,17.67,31.2,30.91,43.79,10.81,10.28,22.85,18.68,35.82,25.92,22.96,12.81,47.6,20.96,73.09,26.91,16.73,3.91,33.65,6.67,50.74,8.04,20.34,1.63,40.7,1.78,60.86-2.18Z"/><path class="cls-1" d="M270.11,334.55c-1.63-.11-2.12-1.36-2.58-2.61-2.79-7.55-5.76-15.03-8.33-22.66-3.84-11.41-6.25-23.18-7.65-35.12-1.26-10.79-1.21-21.57.22-32.4,1.47-11.14,4.14-21.84,8.79-32.06,3.16-6.96,7.18-13.35,11.71-19.53,11.13-15.19,25.68-25.99,42.56-33.75,10.53-4.84,21.63-8.07,33.16-9.81,13.27-2,26.6-2.43,39.9-1.09,17.79,1.79,34.7,6.82,50.81,14.72,11.37,5.58,21.98,12.33,31.99,19.98,10.03,7.66,19.06,16.46,27.26,26.09,8.5,9.99,15.83,20.68,21.25,32.68,5.58,12.36,7.54,24.9,2.72,37.96-.25.68-.47,1.38-.8,2.03-.19.37-.56.64-.7.78-6.46-1.19-12.74-2.35-19.37-3.57.12-1.18.12-2.47.4-3.69,3.17-14.24-.22-27.25-7.26-39.61-6.56-11.52-15.61-20.81-25.9-28.97-1.51-1.2-3.14-2.49-6.15-2.82,1.25,1.8,1.9,3.06,2.84,4.06,6.54,6.99,12.12,14.71,16.8,23.02,4.98,8.85,8.9,18.08,9.46,28.5.39,7.27-1.5,13.7-5.94,19.29-6.3,7.93-14.46,13.52-23.75,18.12-3.05-5.7-8.79-7.49-13.93-10.16-4.92-2.56-9.83-5.16-14.72-7.77-.31-.17-.45-.66-.87-1.34,3.33,0,6.37.09,9.4-.02,8.29-.31,15.91-2.59,22.07-8.4,3.52-3.31,5.51-7.61,6.16-12.35,1.92-13.89-2.67-26.27-9.18-38.17-.21-.38-.49-.74-.8-1.05-.19-.18-.5-.24-1.02-.47-.9,1.38-.08,2.73.13,4.03.99,5.91,2.3,11.79,2.96,17.73.67,5.91-.5,11.72-2.86,17.18-3.33,7.68-9.96,10.75-17.69,11.98-10.87,1.73-21.4-.14-31.29-4.44-9.34-4.06-15.68-11.38-19.26-21.67,3.02,2.24,5.51,4.23,8.14,6.02,5.98,4.05,12.48,6.28,19.85,5.88,9.12-.5,16.59-6.46,19.49-15.19,3.19-9.6.63-18.26-3.9-26.53-6.7-12.23-16.89-21.08-28.32-28.84-11.08-7.51-23.05-12.73-35.96-15.86-10.32-2.5-20.74-3.12-31.34-1.26-17.25,3.03-31.63,11.3-43.64,23.65-13.73,14.11-23.05,30.9-28.7,49.78-2.32,7.75-4.18,15.57-5.14,23.59-1.59,13.3-1.59,26.62.36,39.88,1.55,10.58,3.6,21.07,7.09,31.22.36,1.06,1.01,2.01,1.53,3.01h0ZM477.53,197.74c-.25-4.03-1.1-4.97-3.76-4.56-1.66.25-2.25,1.18-1.95,2.76.46,2.44,1.79,2.89,5.71,1.8ZM502.76,218.99c-1.99-.26-3.85-1.14-4.91.93-.36.7-.09,2.18.46,2.81,1.36,1.57,3.06,1.14,4.97.11-.17-1.29-.34-2.52-.52-3.85ZM508.19,241c-.26,3.47.14,4.17,2.24,4.23,1.91.06,3.05-.89,2.93-2.42-.15-1.86-1.16-2.25-5.17-1.81ZM515.16,261.98c-.28.4-1.2,1.17-1.3,2.03-.18,1.66.77,2.73,2.6,2.69,1.52-.03,2.53-.66,2.42-2.34-.12-1.79-1.2-2.52-3.72-2.38Z"/><path class="cls-1" d="M69.46,238.74c-.27-1.55-.43-2.07-.45-2.59-.44-13.96.67-27.78,3.16-41.54,2.39-13.19,6.11-25.95,12.08-37.93,4.9-9.83,10.72-19.09,17.47-27.85,15.44-20.05,34.49-35.78,56.03-48.74,13.73-8.26,28.21-14.96,43.37-20.1,9.28-3.14,18.78-5.61,28.16-8.45,3.28-.99,5.86-.43,8.27,2.21,2.25,2.47,4.97,4.5,8.18,7.34-5.52,1.98-9.89,3.43-14.17,5.12-8.29,3.28-16.65,6.43-24.75,10.15-8.77,4.02-17.46,8.29-25.85,13.05-13.51,7.68-26.27,16.51-38.49,26.17-8.31,6.57-15.96,13.84-23.06,21.57-10.81,11.76-19.86,24.9-27.47,39.03-9.94,18.46-16.82,37.97-21.12,58.44-.23,1.07-.69,2.09-1.38,4.12Z"/><path class="cls-1" d="M506.95,59.93c8.78.26,17.29.51,26.37.78-.13,8.05-1.67,15.88-4.42,23.75-1.25-.27-2.13-.32-2.87-.65-5.18-2.34-10.36-4.68-15.45-7.19-.89-.44-1.84-1.61-1.98-2.55-.68-4.59-1.09-9.21-1.63-14.13Z"/><path class="cls-1" d="M504.07,51.12c-3.19-7.27-5.85-14.53-8.32-22.44,3.19-.71,5.84-1.29,8.93-1.98.95,2.32,1.99,4.51,2.76,6.8,1.48,4.41,2.83,8.87,4.2,13.32.75,2.42.3,3.13-2.2,3.55-1.57.26-3.15.45-5.38.76Z"/><path class="cls-1" d="M260.43,19.05c4.1-1.17,7.31-2.11,10.54-3,1.91-.53,3.05.33,3.73,2.1,1.6,4.22,3.24,8.41,5.14,13.31-4.33.53-8.15,1.08-12,1.41-.69.06-1.86-.58-2.13-1.2-1.77-3.95-3.36-7.99-5.27-12.63Z"/><path class="cls-1" d="M653.28,60.37c-4.56,1.19-8.58,2.23-12.73,3.31-.49-.85-.96-1.42-1.17-2.07-.99-3.19-1.9-6.4-2.9-9.8,3.45-2.15,7.27-2.38,10.87-3.18.76-.17,2.34.77,2.64,1.55,1.25,3.2,2.15,6.54,3.29,10.18Z"/><path class="cls-1" d="M556.97,101.04c4.01-3.73,3.97-3.66,7.74-1.23,3.92,2.53,7.96,4.86,11.87,7.39,2.05,1.33,3.95,2.9,6.02,4.44-5.55,3.36-5.67,3.27-10.31-.05-3.9-2.8-7.96-5.36-11.94-8.05-1.06-.72-2.06-1.52-3.38-2.5Z"/><path class="cls-1" d="M249.8,47.95c4.8-1.43,9.4-1.79,14-2.16,1.83-.15,2.78.84,3.1,2.41.46,2.25.73,4.55,1.06,6.72-6.53,3.53-7.82,3.37-12.82-1.51-1.72-1.68-3.37-3.44-5.34-5.46Z"/><path class="cls-1" d="M421.67,18.23c1.04,2.85,2.02,5.58,3.04,8.3.67,1.8-.16,2.84-1.74,3.4-2.6.91-5.24,1.72-8.39,2.74-1.43-3.91-2.75-7.54-4.15-11.38,3.63-2.13,7.3-2.65,11.24-3.06Z"/><path class="cls-1" d="M576.75,65.5c3.7-1.01,6.74-1.84,10.24-2.8,1.53,4.11,2.93,7.88,4.52,12.15-2.76.99-5.16,1.94-7.61,2.71-1.72.54-2.83-.44-3.42-1.95-1.2-3.1-2.32-6.25-3.74-10.11Z"/><path class="cls-1" d="M424.21,317.04c-1.55-3.64-3.01-7.08-4.49-10.57,2.45-2.5,5.67-2.49,8.53-3.25.77-.2,2.39.65,2.73,1.41,1.35,3.01,2.34,6.18,3.56,9.54-3.65,1.01-6.84,1.9-10.33,2.86Z"/><path class="cls-1" d="M297.1,46.24c0-3.67.13-3.89,3.96-4.01,3.64-.11,7.29-.12,10.93.03,2.28.1,4.02,2.31,3.51,4.45-.17.73-1.26,1.63-2.05,1.76-4.45.72-8.92,1.26-13.39,1.78-2.42.28-2.95-.5-2.95-4.02Z"/><path class="cls-1" d="M495.9,70.54c-3.84-1.39-7.44-2.69-11.64-4.21.84-3.73,1.65-7.32,2.44-10.87,5.82-.16,7.34.75,8.45,5.93.59,2.75,1.72,5.56.74,9.14Z"/><path class="cls-1" d="M352.6,14.95c-3.91,1.31-7.29,2.45-11,3.7-1.37-3.42-2.6-6.48-3.88-9.68,3.25-2.74,7.27-2.21,10.7-3.55,2.75,2.49,2.69,5.86,4.17,9.53Z"/><path class="cls-1" d="M606.81,276.73c1.05,3.27,2.01,6.25,3.1,9.64-3.91,1.22-7.46,2.32-11.38,3.54-1.53-3.25-3.04-6.29-3.25-10.16,3.79-.99,7.51-1.96,11.53-3.01Z"/><path class="cls-1" d="M634.78,182.85c-3.33,1.17-6.27,2.21-9.71,3.42-1.34-3.61-2.61-6.93-3.78-10.29-.16-.45.07-1.47.36-1.58,2.54-.93,5.12-1.79,7.74-2.46.39-.1,1.3.71,1.54,1.28,1.3,3.04,2.47,6.13,3.85,9.63Z"/><path class="cls-1" d="M475.7,51.68c-1.26,3.55-2.4,6.77-3.69,10.41-2.45-.54-4.6-.8-6.57-1.54-.86-.33-1.83-1.61-1.9-2.53-.24-3-.09-6.02-.09-9.46,4.68.05,8.03,2.23,12.26,3.12Z"/><path class="cls-1" d="M488.03,25.93c-3.45.9-6.09,1.59-9.29,2.42-1.35-3.63-2.64-7.08-4.11-11.01,3.46-.8,6.36-1.47,9.76-2.26,1.21,3.59,2.33,6.95,3.64,10.85Z"/><path class="cls-1" d="M593.65,270.03c-1.26-3.43-2.3-6.26-3.42-9.28,2.82-2.51,6.36-2.51,9.75-3.44,1.96,2.57,2.83,5.38,3.38,8.97-3.1,1.2-6.13,2.37-9.71,3.76Z"/><path class="cls-1" d="M391.39,29.6c2.69-.75,5.15-1.49,7.64-2.1,1.56-.38,2.5.51,2.92,1.92.61,2.07,1.14,4.16,1.87,6.85-3.21.92-6.19,1.77-9.07,2.6-2.06-2.81-2.27-3.38-3.36-9.27Z"/><path class="cls-1" d="M600.83,68.42c2.59-.8,4.67-1.45,6.75-2.09,2.06-.63,3.43.03,4,2.15.53,1.96,1.03,3.92,1.62,6.2-3.07,1.04-5.92,2-8.95,3.02-2.29-2.64-2.48-5.84-3.43-9.28Z"/><path class="cls-1" d="M531.25,44.75c-8.42,4.37-8.46,4.36-11.35-4-.23-.66-.41-1.35-.62-2.05.53-.35.84-.69,1.22-.8,8.49-2.48,8.25-4.31,10.75,6.85Z"/><path class="cls-1" d="M637.96,226.81c-3.33.95-6.45,1.84-9.72,2.78-.94-2.23-1.68-3.94-2.38-5.66-.69-1.7-.07-2.88,1.59-3.42,7.92-2.56,8.08-3.99,10.51,6.3Z"/><path class="cls-1" d="M253.97,35.23c-3.35.73-6.14,1.37-8.95,1.95-1.54.32-2.57-.43-3.07-1.83-.53-1.48-.94-3-1.54-4.98,3.52-1.1,6.67-2.08,9.84-3.06,2.68,2.02,2.21,5.06,3.72,7.92Z"/><path class="cls-1" d="M346.59,28.44c2.82-.79,5.67-1.58,8.79-2.45.55,1.62,1.01,2.79,1.34,4,.44,1.58,2.37,3.53.58,4.71-2.06,1.36-4.78,1.74-7.25,2.41-.38.1-1.26-.42-1.39-.82-.8-2.41-2.5-4.6-2.08-7.86Z"/><path class="cls-1" d="M526.56,299.08c-2.96,1.19-5.21,2.17-7.52,2.98-1.92.68-3.44.19-4.09-1.95-.53-1.76-1.06-3.53-1.68-5.62,3.4-.95,6.43-1.8,10.04-2.8,1.02,2.32,2.02,4.59,3.25,7.39Z"/><path class="cls-1" d="M563.62,62.93c.49,1.17.86,2.06,1.45,3.47-7,2.2-13.77,4.1-20.99,5.46-.4-1.26-.72-2.29-1.17-3.72,7.04-1.77,13.78-3.47,20.71-5.21Z"/><path class="cls-1" d="M560.14,78.24c1.13-.56,1.62-.88,2.16-1.06,6.35-2.2,7.28-1.7,9.02,4.83.18.69.3,1.39.55,2.54-2.63.9-5.14,1.76-8.09,2.77-1.29-3.22-2.4-5.99-3.64-9.08Z"/><path class="cls-1" d="M458.32,27.85c-.99-2.91-1.83-5.33-2.7-7.88,3.11-1.51,5.87-2.72,9.53-2.12.79,2.16,1.62,4.42,2.45,6.69-2.74,2.61-5.97,2.22-9.28,3.3Z"/><path class="cls-1" d="M612.32,157.19c2.87-2.21,5.92-2.81,9.25-3.41,1.02,2.24,1.96,4.33,3.14,6.92-2.48,1.08-4.76,2.24-7.15,3.02-.67.22-2.07-.41-2.5-1.07-1.09-1.66-1.82-3.56-2.74-5.46Z"/><path class="cls-1" d="M580.88,244.82c-.68-3.23-1.25-5.92-1.85-8.77,2.08-1.65,4.51-1.28,6.76-1.39.59-.03,1.56.92,1.78,1.6.66,2.07,1.03,4.22,1.66,6.99-2.79.52-5.29.99-8.34,1.56Z"/><path class="cls-1" d="M541.29,273.86c-3.3.49-6.1.9-9.61,1.42.43-2.73.66-4.72,1.07-6.67.89-4.29,1.23-4.48,6.46-3.8.63,2.75,1.3,5.66,2.08,9.05Z"/><path class="cls-1" d="M418.16,49.83c-.14-.91-.38-1.88-.42-2.87-.22-5.4.54-6.05,6.01-5.5,1.63.16,2.96.56,2.93,2.49-.03,1.94,1.02,4.32-1.53,5.44-2.14.94-4.4,1.64-6.99.44Z"/><path class="cls-1" d="M614.4,106.77c-1-2.17-1.95-4.23-2.87-6.23,2.57-2.15,3.63-2.54,8.42-3.2,3.72,5.74,3.17,7.29-3.19,8.91-.68.17-1.37.31-2.36.53Z"/><path class="cls-1" d="M279.76,52.58c-.5-2.79-.98-5.45-1.57-8.7,2.84-.27,5.2-.5,7.47-.72,2.4,8.09.7,10.31-5.91,9.42Z"/><path class="cls-1" d="M636.78,251.45c2.58-.68,5.18-1.36,8.28-2.18.87,2.54,1.64,4.8,2.4,7.02-.66.5-.95.86-1.32,1-6.98,2.57-7.7,2.14-9.36-5.84Z"/><path class="cls-1" d="M235.35,38.92c-2.44.73-4.1,1.22-6.31,1.88-1.2-2.93-2.38-5.79-3.77-9.18,2.31-.86,4.26-1.58,6.72-2.49,1.15,3.36,2.17,6.32,3.36,9.79Z"/><path class="cls-1" d="M444.12,27.19c.95,2.69,1.79,5.07,2.92,8.27-3.79-.45-6.93-.56-9.9-1.32-1.03-.26-1.65-2.13-2.91-3.9,3.54-1.09,6.47-2,9.89-3.05Z"/><path class="cls-1" d="M522.47,13.55c-2.66.74-4.57,1.26-6.69,1.85-.89-2.12-1.73-4.1-2.55-6.09-.71-1.72-.13-2.8,1.67-3.24,1.39-.35,2.79-.68,4.67-1.14.95,2.82,1.84,5.47,2.9,8.63Z"/><path class="cls-1" d="M502.24,313.18c2.63-.62,4.55-1.07,6.84-1.61.87,2.69,1.61,4.98,2.49,7.72-2.32.75-4.2,1.35-6.68,2.15-.86-2.68-1.63-5.1-2.65-8.26Z"/><path class="cls-1" d="M559.77,300.39c-.97-2.91-1.73-5.23-2.67-8.05,2.37-.6,4.39-1.12,6.92-1.77.88,2.61,1.64,4.88,2.57,7.64-2.39.76-4.38,1.4-6.82,2.18Z"/><path class="cls-1" d="M292.6,30.6c-.68-1.92-1.28-3.62-2.03-5.74,2.85-.9,5.28-1.66,7.77-2.44,1.62,1.66,2.97,3.75,1.91,5.46-1.42,2.29-4.37,2.47-7.66,2.73Z"/><path class="cls-1" d="M482.81,307.25c.06-.06.16-.2.28-.24,6.61-2.2,6.81-2.06,8.08,5.33-6.13,3.4-7.71,2.63-8.62-4.21-.03-.26.15-.54.26-.88Z"/><path class="cls-1" d="M428.17,291.83c-2.66.81-4.67,1.42-6.86,2.08-.85-2.49-1.59-4.64-2.34-6.84,1.77-2.15,4.13-1.9,6.65-2.3.81,2.24,1.58,4.35,2.56,7.06Z"/><path class="cls-1" d="M442.29,304.6c-.94-2.46-1.7-4.48-2.68-7.05,2.07-.74,4-1.43,6.19-2.21.99,2.63,1.78,4.76,2.71,7.24-2.14.69-3.9,1.26-6.22,2.02Z"/><path class="cls-1" d="M486.45,290.98c.65,1.73,1.09,2.91,1.71,4.59-2.9,1.04-5.56,2-8.72,3.14-.6-1.24-1.17-2.45-1.91-3.99,3.01-1.26,5.65-2.36,8.92-3.73Z"/><path class="cls-1" d="M588.01,297.38c-2.17.69-3.88,1.23-5.73,1.81-.93-2.23-1.69-4.06-2.66-6.37,2.1-.77,3.89-1.43,5.98-2.2.86,2.42,1.57,4.39,2.41,6.76Z"/><path class="cls-1" d="M628.69,59.49c-2.64.63-4.68,1.12-7.14,1.71-.73-1.73-1.37-3.26-2.22-5.29,2.42-.8,4.52-1.49,6.99-2.3.8,2,1.47,3.65,2.37,5.88Z"/><path class="cls-1" d="M609.57,137.52c1.06,1.92,1.96,3.54,3.16,5.71-2.08.76-3.88,1.41-6,2.19-1.06-1.92-2.01-3.62-3.28-5.92,2.31-.74,4.11-1.32,6.13-1.97Z"/><path class="cls-1" d="M452.67,309.32c.6,1.73,2.25,3.36.61,4.51-1.49,1.05-3.72,1.26-5.65,1.35-.52.02-1.38-1.66-1.62-2.67-.32-1.32.58-2.13,1.9-2.38.43-.08.86-.13,1.28-.2.98-.17,1.97-.35,3.47-.61Z"/><path class="cls-1" d="M546.36,36.7c-.46-1.48-.8-2.57-1.29-4.14,1.94-.59,3.67-1.22,5.46-1.61,1.6-.35,2.45.71,2.84,2.11.44,1.59-.41,2.62-1.83,2.97-1.54.38-3.16.43-5.17.67Z"/><path class="cls-1" d="M549.02,91.1c-2.22,3.62-2.28,3.66-4.83,2.16-1.13-.67-2.38-1.31-3.18-2.3-.46-.57-.41-1.93-.05-2.66.25-.5,1.64-.95,2.17-.69,1.96.95,3.77,2.19,5.89,3.48Z"/><path class="cls-1" d="M592.48,93.03c-2.93.57-5.16,1.01-7.57,1.48-.58-1.18-1.07-2.17-1.62-3.28,2.26-1.99,4.82-2.17,7.67-2.42.44,1.22.86,2.39,1.51,4.22Z"/><path class="cls-1" d="M377.78,33.78c.59,1.6,1.13,3.05,1.67,4.5-6.46,2.36-6.78,2.24-7.6-2.79.87-.36,1.77-.81,2.72-1.09.96-.28,1.97-.39,3.2-.61Z"/><path class="cls-1" d="M551.52,53.45c-.47-1.44-.81-2.49-1.26-3.87,2-.64,3.74-1.27,5.52-1.75,1.43-.39,2.66-.03,2.96,1.63.29,1.6-.61,2.38-2.1,2.71-1.54.34-3.06.76-5.13,1.28Z"/><path class="cls-1" d="M617.36,258.85c-.61-1.46-1.14-2.73-1.64-3.92,4.5-3.31,5.83-2.82,6.61,2.38-1.56.48-3.16.98-4.97,1.54Z"/><path class="cls-1" d="M392.56,5.94c-1.98.41-3.34.69-4.85,1-.84-1.65-2.47-2.99-1.18-4.75.55-.75,2.08-1.29,3.04-1.14,2.38.38,2.06,2.68,2.99,4.89Z"/><path class="cls-1" d="M642.04,134.6c.73,1.71,1.33,3.1,2.1,4.88-1.73.64-3.15,1.16-5.06,1.87-.6-1.7-1.1-3.1-1.71-4.81,1.65-.69,2.94-1.22,4.67-1.94Z"/><path class="cls-1" d="M444.43,52.32c1.97-.41,3.61-.74,5.32-1.1.93,2.15,1.74,4-.64,5.1-1.8.84-3.33-.46-4.68-4.01Z"/><path class="cls-1" d="M369.87,2.89c.55,1.16,1.13,2.4,1.94,4.12-1.87.66-3.4,1.2-4.86,1.71-2.71-4.24-2.47-4.71,2.92-5.83Z"/><path class="cls-1" d="M541.51,291q-5.81,1.68-7.4-1.02c1.53-1.72,3.57-2.42,5.74-1.94.66.14,1,1.72,1.66,2.96Z"/><path class="cls-1" d="M395.4,277.3c2.03-.78,3.09-1.21,4.16-1.59.67-.24,1.36-.41,2.38-.71.53.91,1.05,1.81,1.86,3.22-2.27.7-4.1,1.48-6,1.71-.57.07-1.33-1.4-2.4-2.62Z"/><path class="cls-1" d="M482.49,43.47c1.85-.6,3.71-1.3,5.62-1.74.49-.11,1.32.45,1.72.93.28.34.28,1.46.07,1.56-1.37.68-2.79,1.38-4.27,1.69-1.54.33-2.85-.24-3.13-2.45Z"/><path class="cls-1" d="M630.48,205.01c-2.27.77-3.09-.08-3.1-1.96-.02-2.46,0-4.91,0-6.98,1.56,1.64,2.49,4.09,3.1,8.94Z"/><path class="cls-1" d="M592.6,126.03c-.89-1.56-1.65-2.88-2.39-4.17,3.21-2.18,3.3-2.15,6.4,2.57-1.32.53-2.55,1.02-4,1.6Z"/><path class="cls-1" d="M384.46,274.49c-1.49.44-2.58.76-4.21,1.24-.42-1.26-1.15-2.42-1.1-3.55.09-1.93,1.94-2.15,3.3-2.02,2.55.24,1.99,2.28,2.01,4.34Z"/><path class="cls-1" d="M616.28,233.88c-1.81.65-2.99,1.21-4.22,1.46-.57.12-1.66-.22-1.8-.61-.24-.68-.23-1.82.2-2.31.82-.93,2-1.54,3.3-2.48.83,1.29,1.5,2.34,2.53,3.93Z"/><path class="cls-1" d="M570.76,267.88c2.18-.15,3.8-.45,5.35-.23.43.06,1.1,2.3.87,2.47-1.17.87-2.6,1.38-4.28,2.18-.66-1.5-1.13-2.58-1.93-4.42Z"/><path class="cls-1" d="M466.35,39.61c-1.71-1.33-5.01.73-5.67-2.73,4.9-2.29,5.31-2.12,5.67,2.73Z"/><path class="cls-1" d="M647.19,169.6c1.34-.34,2.67-.82,4.04-.94.48-.04,1.3.69,1.48,1.23.18.53-.06,1.61-.46,1.84-.95.54-2.16,1.08-3.17.93-.85-.12-1.55-1.21-2.32-1.87.14-.4.28-.79.43-1.19Z"/><path class="cls-1" d="M320.81,19.75q1.37,3.75-2.73,5.1c-.5-1-1.03-2.05-1.77-3.54,1.67-.58,2.96-1.03,4.5-1.56Z"/><path class="cls-1" d="M647.66,94.67c1.61-.45,2.81-.95,4.04-1.05.66-.05,1.38.61,2.08.95-.45.79-.79,2.13-1.38,2.25-1.65.34-3.74,1.06-4.74-2.15Z"/><path class="cls-1" d="M545.78,307.45c-2.16.44-4.2.85-6.28,1.27-1.17-2.82.76-2.92,2.23-3.33,1.68-.46,3.47-1.08,4.05,2.06Z"/><path class="cls-1" d="M329.97,35.26c-1.33.15-2.3.25-3.44.38-.4-.98-.76-1.88-1.23-3.04.75-.32,1.34-.77,1.96-.81,2.13-.14,2.63,1.25,2.72,3.48Z"/><path class="cls-1" d="M435.17,2.54c-.99.36-2.03.98-3.08,1-.61.02-1.66-.87-1.74-1.45-.07-.57.71-1.65,1.33-1.85,1.65-.52,3.25-.42,3.49,2.29Z"/><path class="cls-1" d="M462.94,307.86q3.64-1.56,4.56,1.99c-1.03.3-2.06.59-3.36.97-.39-.96-.74-1.82-1.2-2.96Z"/><path class="cls-1" d="M406.83,46.2q-2.18,2.64-6.55,1.42c1.91-.41,3.83-.83,6.55-1.42Z"/><path class="cls-1" d="M641.03,238.29c-2.44.73-4.87,1.46-7.69,2.31,1.93-2.25,2.25-2.37,7.69-2.31Z"/><path class="cls-1" d="M609.15,88.39c2.22-.59,4.43-1.17,6.65-1.76.07.21.13.42.2.63-2.19.68-4.38,1.36-6.57,2.03l-.28-.91Z"/><path class="cls-1" d="M446.98,44.08c-1.9,1.88-2.93,2.25-4.57.45,1.58-.16,2.59-.26,4.57-.45Z"/><path class="cls-1" d="M578.53,35.62c-1.81-.16-2.77-.23-3.72-.37-.03,0-.1-.95.12-1.14,1.04-.91,2.04-.87,3.6,1.51Z"/><path class="cls-1" d="M406.36,296.9c-.81-.17-1.63-.34-2.44-.5.04-.33.08-.67.12-1,.84.05,1.68.09,2.51.14-.06.46-.13.91-.19,1.37Z"/><path class="cls-1" d="M524.54,313.43c-.21-.93-.41-1.86-.78-3.5,2.06,1.14,2.71,1.95.78,3.5Z"/><path class="cls-1" d="M502,292.99c.45.69.7,1.08.96,1.47-.44.24-.86.6-1.32.67-.24.03-.82-.6-.77-.72.18-.43.58-.76,1.13-1.42Z"/><path class="cls-1" d="M205.97,43.03c-.36.17-.91.58-1.04.47-.39-.31-.6-.83-.89-1.27.33-.2.67-.58.99-.56.56.03,1.12.29,1.68.46-.25.3-.49.6-.74.9Z"/><path class="cls-1" d="M414.58,208.33c.24.45.6.81.54,1.1-.06.31-.49.55-.76.81-.27-.39-.6-.75-.75-1.18-.04-.1.55-.42.97-.73Z"/><path class="cls-1" d="M413.4,218.97c-.15.41-.24.66-.33.91-.34-.18-.71-.33-.99-.57-.07-.06.19-.68.25-.67.36.05.71.21,1.07.33Z"/><path class="cls-1" d="M404.53,226.77c-.16-.19-.45-.37-.45-.56,0-.18.29-.37.46-.55.21.25.42.5.63.74-.21.12-.42.24-.64.36Z"/><path class="cls-1" d="M270.1,334.56v3.68c-.13-.01-.25-.02-.38-.04.13-1.21.26-2.43.38-3.65,0,0,0,0,0,0Z"/><path class="cls-1" d="M652.71,210.69c-.21-.25-.44-.5-.66-.76.21-.13.47-.42.6-.37.3.12.53.4.79.62-.2.14-.4.28-.73.51Z"/></svg>