<?xml version="1.0" encoding="UTF-8"?><svg id="Layer_2" xmlns="http://www.w3.org/2000/svg" viewBox="0 0 1358.22 1298.94"><defs><style>.cls-1{fill:#fff;stroke-width:0px;}</style></defs><g id="Livello_1"><path class="cls-1" d="M630.17,932.81c18.06.92,36.08,2.81,54.2,2.03,16.33-.71,32.53-2.44,48.75-4.66,18.65-2.55,36.73-7.25,54.68-12.5,17.04-4.98,33.54-11.53,49.87-18.59,31.41-13.57,61.29-29.9,90.01-48.4,12.58-8.1,25.27-16.09,37.31-24.95,16.69-12.29,33.4-24.54,49.55-37.59,14.35-11.6,28.51-23.44,42.72-35.2,10.57-8.75,20.48-18.3,30.69-27.49,17.48-15.76,34.33-32.2,51.11-48.68,17.75-17.43,35.22-35.15,52.15-53.41,7.89-8.51,15.87-16.91,23.63-25.55,11.82-13.15,23.29-26.58,34.18-40.5,11.07-14.14,21.84-28.49,31.69-43.53,15.13-23.12,27.92-47.39,36.73-73.66,2.56-7.63,4.19-15.44,5.03-24.74,4.86,10.58,8.55,20.3,11.54,30.31,5.87,19.66,10.19,39.71,14.49,59.75,1.82,8.51,2.45,17.28,3.47,25.95,1.4,11.95,2.72,23.9,3.93,35.87.55,5.42.67,10.91.92,16.33.9,19.25,1.95,38.54,1.11,57.82-.68,15.68-1.49,31.39-3.02,47.01-2.14,21.92-4.78,43.77-8.65,65.49-6.21,34.81-14.47,69.02-25.46,102.64-11.24,34.36-25.78,67.27-42.82,99.06-14.64,27.32-31.57,53.28-50.39,77.92-10.5,13.75-21.62,27.03-33.32,39.84-9.55,10.46-19.49,20.51-29.71,30.26-15.05,14.35-30.88,27.81-47.22,40.74-23.31,18.45-47.89,34.97-73.47,50-15.58,9.15-31.59,17.62-47.7,25.79-54.31,27.56-111.42,47.45-170.87,60.39-38.83,8.45-78.11,13.98-117.84,16.61-28.99,1.92-58,2.58-86.84.4-78.77-5.96-154.81-23.55-227.4-55.51-58.73-25.85-113.01-58.84-162.95-98.97-18.29-14.7-35.66-30.52-51.29-48.13,2.78-.57,5.18.43,7.63,1.63,19.71,9.66,39.35,19.46,59.5,28.2,35.73,15.5,72.38,28.45,110.16,37.89,38.45,9.61,77.36,16.78,116.92,20.37,23.97,2.18,47.9,3.31,71.98,3,26.77-.34,53.36-2.31,79.96-5.1,16.48-1.73,32.96-3.55,49.26-6.47,30.19-5.41,60.3-11.23,89.86-19.62,20.3-5.77,40.54-11.73,60.51-18.52,23.44-7.96,46.36-17.25,69.06-27.16,20.87-9.12,41.55-18.57,61.63-29.3,24.94-13.33,49.04-28,71.93-44.62,12.75-9.26,25.49-18.52,37.56-28.7,11.41-9.63,23.05-18.98,34.12-29.03,12.3-11.17,24.87-22.04,36.56-33.86,6.4-6.48,12.64-13.13,18.93-19.72,2.17-2.27,4.8-3.93,6.84-6.47,5.3-6.59,10.63-13.29,16.87-18.92,5.32-4.8,9.89-10.2,14.51-15.52,11.46-13.17,23.24-26.02,35.24-38.69,12.19-12.88,23.36-26.66,34.19-40.7,14.7-19.06,27.95-39.12,40.22-59.81,5.82-9.82,11.97-19.48,16.68-29.93.25-.38.5-.76.72-1.16.01-.02-.24-.19-.37-.28-.16.44-.32.89-.48,1.33-1.38-.08-2.57.25-3.65,1.23-10.38,9.51-21.4,18.26-32.2,27.29-18.01,15.05-36.47,29.5-55.28,43.53-8.72,6.51-18.05,12.25-26.48,19.09-5.77,4.68-11.85,8.85-17.9,13.08-9.49,6.63-19.13,13.03-28.99,19.15-7.03,4.36-14.11,8.89-20.94,13.69-3.94,2.77-9.12,3.28-12.44,7.08-1.89,1.03-3.8,2.05-5.68,3.1-14.58,8.14-28.5,17.43-43.48,24.89-12.26,6.1-24.46,12.4-36.93,17.97-9.56,4.27-19.44,8.14-29.24,12-14.93,5.88-29.88,11.53-45.23,16.24-29.13,8.95-58.66,15.92-88.77,20.9-25.86,4.28-51.89,6.28-77.96,7.52-15.72.75-31.54.47-47.36-.49-18.96-1.15-37.9-1.93-56.51-6.06-8.91-1.71-17.89-3.16-26.72-5.2-14.64-3.38-29.2-7.1-43.09-12.98-.14-1.98.6-3.05,2.77-2.98,2.43.08,4.87-.02,7.31-.04Z"/><path class="cls-1" d="M1121.07,857.94c3.32-3.81,8.5-4.31,12.44-7.08,6.82-4.8,13.9-9.33,20.94-13.69,9.86-6.11,19.5-12.52,28.99-19.15,6.05-4.23,12.13-8.4,17.9-13.08,8.43-6.85,17.76-12.59,26.48-19.09,18.8-14.03,37.27-28.48,55.28-43.53,10.79-9.02,21.81-17.78,32.2-27.29,1.08-.99,2.27-1.32,3.65-1.23l.13.11c-4.71,10.45-10.86,20.11-16.68,29.93-12.27,20.69-25.52,40.75-40.22,59.81-10.83,14.04-22,27.81-34.19,40.7-11.99,12.68-23.78,25.53-35.24,38.69-4.63,5.32-9.19,10.72-14.51,15.52-6.24,5.63-11.58,12.33-16.87,18.92-2.04,2.54-4.67,4.2-6.84,6.47-6.3,6.59-12.53,13.24-18.93,19.72-11.68,11.82-24.26,22.69-36.56,33.86-11.06,10.05-22.7,19.41-34.12,29.03-12.06,10.18-24.8,19.44-37.56,28.7-22.89,16.62-46.99,31.3-71.93,44.62-20.08,10.73-40.76,20.19-61.63,29.3-22.7,9.91-45.63,19.2-69.06,27.16-19.97,6.79-40.21,12.75-60.51,18.52-29.56,8.4-59.67,14.21-89.86,19.62-16.3,2.92-32.77,4.73-49.26,6.47-26.59,2.8-53.19,4.76-79.96,5.1-24.08.31-48.01-.83-71.98-3-39.56-3.59-78.47-10.76-116.92-20.37-37.78-9.44-74.43-22.4-110.16-37.89-20.14-8.74-39.79-18.54-59.5-28.2-2.45-1.2-4.85-2.21-7.63-1.63-30.15-29.26-55.71-62.24-78.5-97.42-31.88-49.22-56.21-101.98-73.39-158.05-6.63-21.62-11.5-43.65-16.15-65.76-3.36-15.97-5.78-32.13-7.48-48.26-3.24-30.72-4.18-61.62-2.86-92.55.3-6.99.33-13.98.58-20.97.23-6.41.69-12.81,2.13-19.1.95-6.66,2.06-13.31,2.76-20,.26-2.49.64-3.58,3.48-4.19,5.92-1.27,8.85-7.14,5.74-11.39-2.02-2.75-2.23-5.44-2.11-8.41.28-7.01,1.9-13.76,4.26-20.33.32-.88,1.44-2.34,1.63-2.26,4.55,2,7.8-1.98,11.8-2.48,4.88-.61,7.52,1.51,9.06,5.75.79,2.18,1.08,4.74,2.43,6.49,5.43,7.05,7.58,15.21,9.01,23.75.61,3.67.86,8.14,3.08,10.61,2.89,3.21,4.53,6.76,5.55,10.5,2.02,7.38,4.93,14.44,7.02,21.81,3,10.55,8.26,20.41,11.5,31,.97,3.17,1.07,7.84,5.69,9.13,0,0-.02-.02-.02-.02-.18,3.63.06,7.09,3.8,9.08.15.25.22.52.21.81.25.39.5.78.75,1.16.12.3.19.61.22.94-.03.83.12,1.59.9,2.07.21.14.29.34.22.59-.18,2.6-.52,5.27,2.71,6.42,3.25,5.58,4.75,12.1,9.16,17.06,4.37,11.98,8.77,23.96,13.11,35.95,14.23,39.36,32.36,76.81,55.25,111.89,20.2,30.96,43.91,58.95,70.49,84.68,15.91,15.4,32.67,29.72,50.42,42.81,31.96,23.55,66.5,42.81,103.11,58.12,35.11,14.67,71.49,25.18,108.81,32.84,34.03,6.98,68.41,10.04,102.97,11.47,19.74.82,39.49-.56,59.24-1.66,16.73-.93,33.27-3,49.83-5.21,22.82-3.05,45.32-7.84,67.59-13.56,21.19-5.44,42.09-11.94,62.78-19.14,30.14-10.49,59.34-23.18,88.2-36.73,19.72-9.27,38.8-19.8,57.87-30.27,19.33-10.62,37.95-22.56,56.19-34.98,21.5-14.65,42.95-29.45,62.16-47.14,3.97-3.65,8.58-6.87,10.9-12.08Z"/><path class="cls-1" d="M620.1,935.82c13.9,5.88,28.46,9.6,43.09,12.98,8.84,2.04,17.81,3.49,26.72,5.2-9.61,3.37-19.82,4.24-29.71,4.52-24.35.7-48.74,1.28-73.04-2.49-27.48-4.26-54.02-11.72-80.06-21.22.2-3.21-2-4.72-4.33-6.12-13.45-8.04-25.25-18.3-36.77-28.71-16.9-15.26-32.3-32.1-46.19-50.15-25.07-32.59-46.28-67.56-63.74-104.86-15.54-33.19-27.85-67.41-35.85-103.2-5.62-25.13-8.33-50.58-9.05-76.26-.33-11.77,1.11-23.49,1.92-35.22.17-2.52.34-5.23-3.34-5.51,8.7-17.25,12.02-36.3,18.17-54.4,12.54-36.92,30.8-70.6,55.15-101.1,27.92-34.99,61.26-63.7,99.83-86.15,23.84-13.87,48.64-25.91,75.36-33.58,26.27-7.55,53.15-9.3,80.08-7.38,40.7,2.91,79.51,14.42,117.41,29.08,10.17,3.93,20.09,8.49,29.97,13.21-5.56.57-10.49-1.85-15.62-2.99-16.34-3.61-32.61-7.22-49.37-8.69-52.74-4.63-100.98,8.57-145.81,35.82-21.78,13.24-41.02,29.65-58.2,48.36-10.68,11.63-20.72,23.93-26.64,38.92-1.52,3.84-3.98,8.55-1.2,11.65,3.09,3.44,8.19,1.15,12.16-.22,11.98-4.11,23.02-10.25,33.92-16.62,30.59-17.88,61.44-35.2,95.79-45.12,15.28-4.41,30.69-7.95,46.53-9.82,14.02-1.65,28.05-3.15,42.13-2.78,50.03,1.34,97.41,12.82,141.08,37.94,20.45,11.76,39.28,25.75,55.67,42.71,27.43,28.37,47.25,61.26,56.55,99.9,4.29,17.84,4.47,36.03,2.43,54.23-3.47,30.9-13.68,60.19-21.61,90.03-.75,2.81-1.26,5.71-3.16,8.77-1.43-7.88.03-15.21.96-22.34,1.95-14.89,2.17-29.67.81-44.6-1.48-16.29-4.99-32.01-10.86-47.27-7.65-19.89-18.91-37.39-33.28-53.1-19.86-21.72-43.31-38.36-69.85-50.82-11.44-5.37-23.35-9.36-35.85-11.45-1.46-.24-3-.13-4.49-.06-4.69.25-5.82,2.09-3.89,6.39,3.7,8.26,9.7,14.89,15.67,21.48,22.73,25.08,44.53,50.81,58.84,81.92,8.47,18.42,14.41,37.43,15.79,57.91,2.14,31.83-5.25,61.61-17.84,90.38-6.73,15.38-14.63,30.12-25.06,43.47-7.65,9.79-16.7,17.79-27.4,23.87-15.03,8.54-30.99,14.86-48.17,17.42-20.38,3.04-39.97-.15-58.73-8.61-10.92-4.92-21.37-10.73-31.77-16.63-10.25-5.81-20.41-11.8-30.14-19.04,2.32-1.46,3.98.21,5.53.72,14.92,4.85,29.79,10.06,45.32,12.45,20.05,3.09,39.09-1.03,56.48-11.26,31.02-18.24,48.11-46.2,55.74-80.83,3.47-15.77,3.56-31.66,2.63-47.48-.82-13.97-7.17-26.54-14.49-38.31-22.77-36.63-55.66-59.71-96.87-71.3-11.87-3.34-24.03-4.9-36.39-5.77-33.74-2.38-65.36,5.06-95.47,19.56-22.47,10.82-41.65,26.32-58.12,44.9-25.35,28.61-41.38,61.86-48.54,99.55-3.75,19.71-4.96,39.56-3.58,59.34,2.47,35.34,12.43,68.75,29.38,100,8.49,15.65,18.54,30.15,29.89,43.87,22.4,27.09,49.88,47.92,79.92,65.64,1.94,1.15,4.24,1.7,6.38,2.52,5.37,3.17,11.2,5.14,17.19,6.71Z"/><path class="cls-1" d="M507.1,934.82c26.04,9.5,52.57,16.96,80.06,21.22,24.3,3.76,48.69,3.19,73.04,2.49,9.89-.28,20.1-1.16,29.71-4.52,18.62,4.13,37.55,4.91,56.51,6.07,15.82.96,31.64,1.24,47.36.49,26.07-1.24,52.1-3.24,77.96-7.52,30.1-4.98,59.63-11.95,88.77-20.9,15.34-4.71,30.3-10.36,45.23-16.24,9.8-3.86,19.67-7.73,29.24-12,12.47-5.57,24.67-11.87,36.93-17.97,14.98-7.45,28.9-16.74,43.48-24.89,1.88-1.05,3.78-2.07,5.68-3.1-2.32,5.2-6.93,8.42-10.9,12.08-19.21,17.68-40.66,32.48-62.16,47.14-18.24,12.43-36.86,24.37-56.19,34.98-19.07,10.47-38.15,21-57.87,30.27-28.85,13.56-58.05,26.24-88.2,36.73-20.69,7.2-41.59,13.69-62.78,19.14-22.27,5.72-44.77,10.51-67.59,13.56-16.56,2.22-33.11,4.28-49.83,5.21-19.75,1.1-39.49,2.48-59.24,1.66-34.56-1.44-68.94-4.49-102.97-11.47-37.32-7.66-73.71-18.16-108.81-32.84-36.62-15.3-71.15-34.57-103.11-58.12-17.75-13.08-34.52-27.4-50.42-42.81-26.58-25.73-50.29-53.73-70.49-84.68-22.89-35.08-41.01-72.53-55.25-111.89-4.34-12-8.74-23.97-13.11-35.95-.12-10.95-4-21.27-5.29-32.06-1.23-10.3-2.68-20.57-3.91-30.88-1.9-15.91-2.24-31.84-1.7-47.77.58-17,2.7-33.88,5.51-50.7,6.87-41.12,20.61-80.07,36.52-118.38.64-1.53,1.38-3.02,2.13-4.5.21-.4.63-.7,1.9-2.06-.92,7.84-1.44,14.58-2.56,21.21-1.72,10.26-2.81,20.61-3.49,30.96-.36,5.43-1.24,10.87-1.09,16.3.81,28.72,4.66,57.02,11.93,84.86,10.14,38.82,23.94,76.18,44.1,110.99,4.12,7.12,8.26,14.32,14.45,20.01,3.65,3.36,5.37,2.96,6.81-1.78,1.34-4.41.83-8.83-.06-13.24,2.46.5,2.62,2.86,3.44,4.53,12.52,25.16,24.82,50.44,40.14,74.08,15.02,23.17,32.18,44.68,51.11,64.74,16.78,17.78,34.86,34.15,54.42,48.9,21.65,16.32,44.2,31.17,68.08,44.06,26.39,14.24,53.4,26.91,82.51,34.62Z"/><path class="cls-1" d="M1034.07,716.92c-1.73,1.88-3.49,5.04-6.13,3.58-1.33-.74.83-4.01,1.67-6.01,12.1-28.91,20.9-58.86,27.65-89.4,3.21-14.51,5.69-29.22,6.83-44.09,1.51-19.56,4.07-39.11,2.78-58.74-1.12-17.15-2.27-34.29-4.47-51.4-3.15-24.54-8.85-48.42-15.93-71.93-11.12-36.93-27.01-71.86-47.49-104.65-13.71-21.95-28.87-42.82-46.18-62-30.04-33.27-63.43-62.69-101.63-86.46-61.27-38.13-127.59-62.59-198.78-73.97-20.99-3.35-42.1-5.36-63.39-6.18-12.29-.47-24.57-.74-36.84-.62-15.94.16-31.79,2.08-47.65,3.71-47.9,4.9-94.07,17.08-139.21,33.26-35.6,12.76-69.63,29.11-102.48,47.85-12,6.84-23.8,14.03-35.69,21.06-1.38,0-2.04-.72-2.05-2.08,9.43-9.13,19.84-17.12,30.1-25.25,23.57-18.69,48.46-35.47,74.29-50.93,30.02-17.96,61.32-33.24,94.02-45.55,28.96-10.9,58.54-19.95,88.64-27.28,6.65-1.62,13.05-4.31,19.97-4.87,2.04,1.82,4.49,1.04,6.67.76,8.85-1.12,17.62-3.01,26.49-3.67,21.74-1.62,43.45-3.8,65.33-3.29,14.1.32,28.24.2,42.25,1.46,23.18,2.07,46.29,5.21,69.11,9.91,21.85,4.5,43.66,9.27,64.88,16.28,16.8,5.55,33.41,11.62,49.97,17.92,21.59,8.21,42.54,17.65,63.02,28.13,28.5,14.59,55.58,31.63,81.56,50.37,13.56,9.78,26.89,19.86,39.69,30.62,8.87,7.46,17.9,14.73,26.61,22.37,12.08,10.6,24.44,20.91,33.58,34.45,13.51,20.01,25.24,40.96,34.93,63.06,5.79,13.21,11.2,26.54,15.33,40.4,4.21,14.12,7.51,28.4,9.99,42.93,2.34,13.71,3.98,27.49,4.43,41.36.32,9.95.05,19.9-.76,29.87-.86,10.56-1.86,21.11-3.62,31.5-3.31,19.55-7.68,38.87-14.29,57.69-5.6,15.94-11.21,31.86-18.44,47.13-13.51,28.54-28.93,56.02-47.43,81.66-11.33,15.7-23.04,31.11-35.55,45.92-4.1,4.86-8.84,9.33-11.78,15.14Z"/><path class="cls-1" d="M507.1,934.82c-29.11-7.71-56.12-20.39-82.51-34.62-23.88-12.88-46.43-27.73-68.08-44.06-19.56-14.75-37.64-31.12-54.42-48.9-18.93-20.06-36.1-41.56-51.11-64.74-15.32-23.64-27.63-48.91-40.14-74.08-.83-1.66-.99-4.03-3.44-4.53-1.45-14.24-5.73-27.91-8.65-41.85-3.3-15.75-6.09-31.54-7.8-47.57-1.22-11.4-1.89-22.75-1.87-34.2.07-28.99,4.74-57.31,12.34-85.18,10.65-39.04,27.95-74.94,51.9-107.55,9.71-13.22,20.28-25.77,32.63-36.69.37-.35.74-.7,1.11-1.05,0,0-.06.06-.06.06.35-.35.7-.7,1.06-1.05,0,0-.05.05-.05.05.35-.35.7-.7,1.05-1.05,0,0-.05.05-.05.05.35-.35.7-.7,1.05-1.05,0,0-.05.05-.05.05.35-.35.7-.69,1.05-1.04,0,0-.04.04-.04.04.35-.34.69-.68,1.04-1.03,0,0-.03.03-.03.03.34-.34.69-.67,1.03-1.01,0,0-.01.01-.01.01.34-.35.67-.69,1.01-1.04,0,0-.03.03-.03.03.36-.29.72-.59,1.08-.88.16-.22.36-.28.62-.18.45-.34.89-.67,1.34-1.01,0,0-.06.03-.06.03,2.3.33,3.34-.63,3.05-2.97,0,0,0,0,0,0,.35-.28.7-.57,1.05-.85.12-.25.31-.32.56-.21.46-.34.93-.68,1.39-1.03,0,0-.08.07-.08.07.36-.34.72-.69,1.08-1.03,0,0-.05.05-.05.05.35-.34.7-.69,1.05-1.03,0,0-.03.01-.03.01,3.97.59,6.69-.54,7-5.03,0,0-.03.05-.03.05.35-.34.71-.69,1.06-1.03,0,0-.03.02-.03.02.9.02,1.7-.14,1.96-1.19,0,0-.11.12-.11.12.39-.32.78-.65,1.17-.97,0,0-.05.05-.05.05.36-.33.71-.66,1.07-.99,0,0,0,0,0,0,.86,0,1.62-.18,1.98-1.09,0,0-.07.07-.07.07.36-.34.71-.68,1.07-1.02,0,0-.03.03-.03.03.36-.31.71-.61,1.07-.92,0,0,.06-.03.06-.03.82-.04,1.55-.23,1.91-1.09,0,0-.03.02-.03.02,2.8-.16,6.77,1.43,5.99-4.04,0,0-.01.02-.01.02,3.25-.09,3.5,1.93,2.85,4.3-1.6,5.77-5.84,9.06-11.25,10.7-4.73,1.43-5.72,2.88-3.33,6.8.76,1.24,1.13,2.58.75,3.79-1.33,4.18-.46,6.3,4.39,5.55,1.06-.16,2.96.13,1.98,1.7-2.25,3.61-.85,7.46-1.33,11.16,0,0-.03.09-.03.09-.3.36-.6.73-.9,1.09,0,0,.04-.03.04-.03-3.8.39-4.26,3-4.04,6.07,0,.31-.07.6-.2.88-.26.38-.53.76-.79,1.15.02.3-.05.59-.2.85-.27.38-.54.75-.81,1.13-5.58,11.69-11.69,23.14-15.98,35.41-5.69,16.28-9.99,32.84-12.24,50.01-1.64,12.49-3,25.05-2.59,37.51.72,22.15,2.12,44.39,10.74,65.32.5,1.21.96,2.45,1.64,3.56,4.61,7.55,6.37,7.67,12.02.93,3.68.27,3.51,2.98,3.34,5.51-.81,11.73-2.25,23.45-1.92,35.22.72,25.68,3.44,51.13,9.05,76.26,8,35.79,20.31,70.01,35.85,103.2,17.46,37.29,38.67,72.26,63.74,104.86,13.89,18.06,29.3,34.89,46.19,50.15,11.52,10.41,23.32,20.68,36.77,28.71,2.33,1.39,4.54,2.91,4.33,6.12ZM302.91,307.99c-.49-.39-.79-.82-1.13-.85-.39-.03-1.07.2-1.16.47-.24.74.33,1.14,1,1.11.36-.02.71-.39,1.28-.73Z"/><path class="cls-1" d="M1034.07,716.92c2.94-5.81,7.68-10.28,11.78-15.14,12.51-14.81,24.22-30.22,35.55-45.92,18.5-25.64,33.92-53.12,47.43-81.66,7.23-15.26,12.84-31.18,18.44-47.13,6.61-18.82,10.98-38.13,14.29-57.69,1.76-10.39,2.76-20.95,3.62-31.5.81-9.97,1.08-19.92.76-29.87-.45-13.88-2.09-27.65-4.43-41.36-2.48-14.53-5.78-28.81-9.99-42.93-4.13-13.86-9.54-27.19-15.33-40.4-9.69-22.1-21.43-43.05-34.93-63.06-9.14-13.54-21.5-23.85-33.58-34.45-8.71-7.64-17.74-14.91-26.61-22.37-12.8-10.77-26.13-20.85-39.69-30.62-25.98-18.74-53.06-35.77-81.56-50.37-20.47-10.48-41.43-19.92-63.02-28.13-16.56-6.29-33.17-12.37-49.97-17.92-21.21-7.01-43.03-11.78-64.88-16.28-22.82-4.7-45.92-7.84-69.11-9.91-14.01-1.25-28.16-1.13-42.25-1.46-21.89-.5-43.59,1.67-65.33,3.29-8.87.66-17.65,2.55-26.49,3.67-2.18.28-4.64,1.06-6.67-.76,3.89-3.42,8.97-3.15,13.56-4.05,27.43-5.42,55.1-9.28,83.03-10.52,20.55-.91,41.11-.11,61.65,1.33,28.12,1.97,55.85,6.71,83.56,11.4,18.26,3.09,36.31,7.46,54.22,12.32,9.11,2.47,18.35,4.47,27.37,7.19,13.86,4.18,27.62,8.68,41.35,13.26,24.17,8.06,47.83,17.4,71.05,27.93,34.54,15.66,67.44,34.16,98.89,55.31,19.95,13.42,38.93,28.04,57.54,43.28,19.57,16.03,37.73,33.45,55.13,51.66,15.57,16.29,30.4,33.29,43.97,51.37,5.43,7.23,10.64,14.64,16.3,21.7,2.13,2.65,3.02,5.72,3.33,9.11,1.64,18.08,1.04,36.21.89,54.31-.17,20.8-3.21,41.34-7.18,61.72-3.68,18.86-8.7,37.41-15.22,55.48-9.73,26.98-21.52,52.98-36.19,77.74-13.54,22.86-28.64,44.55-45.54,64.96-12.58,15.19-25.81,29.87-40.26,43.33-20.03,18.67-40.86,36.42-63.24,52.26-.64.45-1.49.6-2.24.89Z"/><path class="cls-1" d="M84.19,642.84c-4.63-1.29-4.72-5.96-5.69-9.13-3.24-10.6-8.51-20.45-11.5-31-2.09-7.37-5.01-14.43-7.02-21.81-1.02-3.74-2.66-7.29-5.55-10.5-2.23-2.47-2.47-6.94-3.08-10.61-1.43-8.54-3.58-16.69-9.01-23.75-1.35-1.75-1.64-4.31-2.43-6.49-1.54-4.24-4.18-6.36-9.06-5.75-4,.5-7.25,4.49-11.8,2.48-.19-.08-1.31,1.38-1.63,2.26-2.36,6.57-3.98,13.32-4.26,20.33-.12,2.97.09,5.66,2.11,8.41,3.12,4.24.18,10.11-5.74,11.39-2.84.61-3.22,1.7-3.48,4.19-.7,6.69-1.81,13.33-2.76,20-.9-11.52,1.66-22.76,3.17-34.02,2.38-17.72,5.34-35.38,9.7-52.76,7.47-29.79,15.97-59.23,29.1-87.13,2.42-.33,2.99,1.1,2.95,3.1-2.54,19.59-3.93,39.25-3.04,59,.72,15.99,3.05,31.79,5.74,47.59,4.57,26.79,11.58,52.9,20.3,78.57,4.07,11.97,8.64,23.76,12.98,35.63Z"/><path class="cls-1" d="M323.08,320.82c.48-3.7-.91-7.54,1.33-11.16.97-1.56-.93-1.86-1.98-1.7-4.86.76-5.72-1.37-4.39-5.55.38-1.21,0-2.55-.75-3.79-2.4-3.91-1.4-5.36,3.33-6.8,5.4-1.64,9.64-4.92,11.25-10.7.66-2.37.4-4.39-2.85-4.3,8.14-6.7,17.46-11.55,26.53-16.77,14.77-8.5,29.48-17.16,45.11-24.05,1.21-.54,2.5-1.9,4.47-.54-30.71,25.28-60,51.86-82.04,85.34Z"/><path class="cls-1" d="M620.1,935.82c-5.99-1.57-11.82-3.54-17.19-6.71,9.19.5,18.21,2.23,27.26,3.7-2.44.02-4.87.11-7.31.04-2.17-.07-2.91,1-2.77,2.98Z"/><path class="cls-1" d="M225.07,168.83c0,1.36.67,2.07,2.05,2.08-4.64,3.04-9.28,6.07-13.93,9.11-.25-.24-.51-.48-.76-.72,4.21-3.49,8.42-6.98,12.64-10.47Z"/><path class="cls-1" d="M48.21,422.05c.04-2-.53-3.43-2.95-3.1,1.2-3.83,2.57-7.57,6.27-11.84-1.32,5.95-2.32,10.45-3.32,14.95Z"/><path class="cls-1" d="M312.04,288.81c-.31,4.49-3.04,5.63-7,5.03,2.02-2.11,4.14-4.09,7-5.03Z"/><path class="cls-1" d="M87.98,651.9c-3.74-1.99-3.98-5.45-3.8-9.08,1.73,2.83,3.14,5.8,3.8,9.08Z"/><path class="cls-1" d="M329.03,276.82c.78,5.47-3.19,3.88-5.99,4.04,1.74-1.73,3.52-3.39,5.99-4.04Z"/><path class="cls-1" d="M318.15,328.04c-.21-3.06.25-5.68,4.04-6.07-.71,2.45-2.11,4.43-4.04,6.07Z"/><path class="cls-1" d="M92.99,663.89c-3.23-1.16-2.9-3.82-2.71-6.42,1.28,1.98,2.35,4.05,2.71,6.42Z"/><path class="cls-1" d="M300.06,297.87c.29,2.33-.75,3.3-3.05,2.97.74-1.27,1.74-2.28,3.05-2.97Z"/><path class="cls-1" d="M213.2,180.02c-.4.77-.91,1.18-1.76.6.34-.44.67-.87,1.01-1.31.25.24.5.48.76.72Z"/><path class="cls-1" d="M315,286.67c-.26,1.05-1.06,1.2-1.96,1.19.32-.95,1.16-1.04,1.96-1.19Z"/><path class="cls-1" d="M90.05,656.88c-.78-.48-.92-1.24-.9-2.07.98.39.97,1.22.9,2.07Z"/><path class="cls-1" d="M323.07,280.84c-.36.86-1.09,1.04-1.91,1.09.64-.36,1.27-.72,1.91-1.09Z"/><path class="cls-1" d="M319.06,283.79c-.36.91-1.12,1.1-1.98,1.09.36-.92,1.21-.92,1.98-1.09Z"/><path class="cls-1" d="M291.07,305.83c-.35.35-.7.69-1.05,1.04.35-.35.7-.69,1.05-1.04Z"/><path class="cls-1" d="M290.07,306.82c-.35.35-.7.7-1.05,1.05.35-.35.7-.7,1.05-1.05Z"/><path class="cls-1" d="M292.07,304.84c-.35.34-.69.68-1.04,1.03.35-.34.69-.68,1.04-1.03Z"/><path class="cls-1" d="M289.07,307.82c-.35.35-.7.7-1.05,1.05.35-.35.7-.7,1.05-1.05Z"/><path class="cls-1" d="M288.06,308.82c-.35.35-.7.7-1.06,1.05.35-.35.7-.7,1.06-1.05Z"/><path class="cls-1" d="M287.07,309.81c-.37.35-.74.7-1.11,1.05.37-.35.74-.7,1.11-1.05Z"/><path class="cls-1" d="M322.16,322c.3-.36.6-.73.9-1.09-.3.36-.6.73-.9,1.09Z"/><path class="cls-1" d="M294.07,302.84c-.34.35-.67.69-1.01,1.04.34-.35.67-.69,1.01-1.04Z"/><path class="cls-1" d="M317.16,330.07c.26-.38.53-.76.79-1.15.16.67-.24.96-.79,1.15Z"/><path class="cls-1" d="M316.16,332.05c.27-.38.54-.75.81-1.13.14.67-.28.94-.81,1.13Z"/><path class="cls-1" d="M320.06,282.84c-.36.34-.71.68-1.07,1.02.36-.34.71-.68,1.07-1.02Z"/><path class="cls-1" d="M295.11,301.99c-.36.29-.72.59-1.08.88.13-.58.43-.95,1.08-.88Z"/><path class="cls-1" d="M321.1,281.95c-.36.31-.71.61-1.07.92.36-.31.71-.61,1.07-.92Z"/><path class="cls-1" d="M297.07,300.8c-.45.34-.89.67-1.34,1.01.45-.34.89-.67,1.34-1.01Z"/><path class="cls-1" d="M301.11,297.02c-.35.28-.7.57-1.05.85.35-.28.7-.57,1.05-.85Z"/><path class="cls-1" d="M303.06,295.78c-.46.34-.93.68-1.39,1.03.46-.34.93-.68,1.39-1.03Z"/><path class="cls-1" d="M88.94,653.87c-.25-.39-.5-.78-.75-1.16.54.2.88.53.75,1.16Z"/><path class="cls-1" d="M304.06,294.82c-.36.34-.72.69-1.08,1.03.36-.34.72-.69,1.08-1.03Z"/><path class="cls-1" d="M305.06,293.83c-.35.34-.7.69-1.05,1.03.35-.34.7-.69,1.05-1.03Z"/><path class="cls-1" d="M313.07,287.84c-.35.34-.71.69-1.06,1.03.35-.34.71-.69,1.06-1.03Z"/><path class="cls-1" d="M316.06,285.82c-.39.32-.78.65-1.17.97.39-.32.78-.65,1.17-.97Z"/><path class="cls-1" d="M317.08,284.88c-.36.33-.71.66-1.07.99.36-.33.71-.66,1.07-.99Z"/><path class="cls-1" d="M293.07,303.86c-.34.34-.69.67-1.03,1.01.34-.34.69-.67,1.03-1.01Z"/><path class="cls-1" d="M1318.94,713.8c.16-.44.32-.89.48-1.33.13.1.38.26.37.28-.22.4-.48.78-.72,1.16,0,0-.13-.11-.13-.11Z"/><path class="cls-1" d="M302.91,307.99c-.57.34-.91.71-1.28.73-.68.04-1.24-.36-1-1.11.09-.27.77-.5,1.16-.47.33.03.63.45,1.13.85Z"/></g></svg>